HIERARCHY
ROOT Hips
{
    OFFSET 0.000000 0.000000 0.000000
    CHANNELS 6 Xposition Yposition Zposition Zrotation Xrotation Yrotation
    JOINT Spine
    {
        OFFSET -0.000000 14.517291 0.000000
        CHANNELS 3 Zrotation Xrotation Yrotation
        JOINT Spine1
        {
            OFFSET -0.000000 37.558300 0.000000
            CHANNELS 3 Zrotation Xrotation Yrotation
            JOINT Neck
            {
                OFFSET -0.000000 37.404057 3.400369
                CHANNELS 3 Zrotation Xrotation Yrotation
                JOINT Head
                {
                    OFFSET -0.000000 24.785618 -3.540803
                    CHANNELS 3 Zrotation Xrotation Yrotation
                    End Site
                    {
                        OFFSET -0.000000 35.408028 0.000000
                    }
                }
            }
            JOINT LeftShoulder
            {
                OFFSET 6.992933 33.973492 -0.192664
                CHANNELS 3 Zrotation Xrotation Yrotation
                JOINT LeftArm
                {
                    OFFSET 21.527611 0.000000 0.000000
                    CHANNELS 3 Zrotation Xrotation Yrotation
                    JOINT LeftForeArm
                    {
                        OFFSET 56.353916 0.000000 0.000000
                        CHANNELS 3 Zrotation Xrotation Yrotation
                        JOINT LeftHand
                        {
                            OFFSET 47.774071 0.000000 0.000000
                            CHANNELS 3 Zrotation Xrotation Yrotation
                            End Site
                            {
                                OFFSET 26.556021 0.000000 0.000000
                            }
                        }
                    }
                }
            }
            JOINT RightShoulder
            {
                OFFSET -7.065357 33.973492 -0.192664
                CHANNELS 3 Zrotation Xrotation Yrotation
                JOINT RightArm
                {
                    OFFSET -21.527611 0.000000 0.000000
                    CHANNELS 3 Zrotation Xrotation Yrotation
                    JOINT RightForeArm
                    {
                        OFFSET -56.353916 0.000000 0.000000
                        CHANNELS 3 Zrotation Xrotation Yrotation
                        JOINT RightHand
                        {
                            OFFSET -47.774071 0.000000 0.000000
                            CHANNELS 3 Zrotation Xrotation Yrotation
                            End Site
                            {
                                OFFSET -26.556021 0.000000 0.000000
                            }
                        }
                    }
                }
            }
        }
    }
    JOINT LeftUpLeg
    {
        OFFSET 17.704014 0.000000 0.000000
        CHANNELS 3 Zrotation Xrotation Yrotation
        JOINT LeftLeg
        {
            OFFSET -0.000000 -81.181816 0.000000
            CHANNELS 3 Zrotation Xrotation Yrotation
            JOINT LeftFoot
            {
                OFFSET -0.000000 -62.821102 0.000000
                CHANNELS 3 Zrotation Xrotation Yrotation
                JOINT LeftToeBase
                {
                    OFFSET -0.000000 -11.507608 26.556021
                    CHANNELS 3 Zrotation Xrotation Yrotation
                    End Site
                    {
                        OFFSET -0.000000 0.000000 7.081605
                    }
                }
            }
        }
    }
    JOINT RightUpLeg
    {
        OFFSET -17.704014 0.000000 0.000000
        CHANNELS 3 Zrotation Xrotation Yrotation
        JOINT RightLeg
        {
            OFFSET -0.000000 -81.181816 0.000000
            CHANNELS 3 Zrotation Xrotation Yrotation
            JOINT RightFoot
            {
                OFFSET -0.000000 -62.821102 0.000000
                CHANNELS 3 Zrotation Xrotation Yrotation
                JOINT RightToeBase
                {
                    OFFSET -0.000000 -11.507608 26.556021
                    CHANNELS 3 Zrotation Xrotation Yrotation
                    End Site
                    {
                        OFFSET -0.000000 0.000000 7.081605
                    }
                }
            }
        }
    }
}
MOTION
Frames:    5
Frame Time:    0.008333
-1.565332    157.388550    -24.504488    -0.583844    -2.646421    -42.423225    2.837062    -0.024203    2.344655    -0.632792    1.158373    0.786834    14.947803    4.530008    15.658007    -8.681420    2.303575    13.635701    -1.269322    9.942394    -10.369349    -42.951252    10.323215    -35.152031    48.939194    -47.147697    -33.233547    -21.912018    -30.758240    -28.238150    -3.154233    8.115715    -3.061286    35.796379    14.577208    72.888756    11.625321    -10.441992    92.585320    14.870913    -19.903162    18.483482    16.961746    -13.504476    6.502301    -12.012316    19.126328    0.985785    -6.340118    -2.220864    34.284618    0.000000    0.000000    0.000000    -12.492780    -2.353289    -2.621274    6.151496    29.721596    0.644038    3.589186    -21.344984    -12.581195    0.000000    0.000000    0.000000    
-1.556550    157.388000    -24.496771    -0.583211    -2.649713    -42.453575    2.841772    -0.029207    2.351410    -0.631541    1.161390    0.789049    14.969292    4.530868    15.659849    -8.711434    2.321315    13.633132    -1.258455    9.956120    -10.378417    -42.947487    10.347141    -35.157356    48.963802    -47.159580    -33.203316    -21.924316    -30.777311    -28.230028    -3.155046    8.088419    -3.072561    35.861042    14.521104    72.954163    11.491056    -10.638537    93.183975    14.970077    -20.061293    18.481800    16.962254    -13.494327    6.498370    -12.018351    19.136379    0.991509    -6.342960    -2.242321    34.289562    0.000000    0.000000    0.000000    -12.499502    -2.362799    -2.627040    6.132275    29.730072    0.680320    3.611990    -21.348289    -12.581477    0.000000    0.000000    0.000000    
-1.548719    157.389236    -24.488735    -0.580114    -2.658134    -42.484055    2.834802    -0.039117    2.355233    -0.611677    1.172917    0.790105    14.965399    4.534631    15.657849    -8.728214    2.329150    13.630577    -1.266716    9.978722    -10.381069    -42.928429    10.353827    -35.175194    48.976639    -47.159317    -33.164894    -21.967905    -30.775476    -28.254395    -3.172253    8.064847    -3.070717    35.928459    14.454673    73.026009    11.340265    -10.820151    93.731926    14.953896    -20.192532    18.495985    16.952286    -13.481981    6.513306    -12.014734    19.139929    1.001531    -6.349523    -2.245464    34.296162    0.000000    0.000000    0.000000    -12.519787    -2.362970    -2.593479    6.157869    29.715523    0.649785    3.594800    -21.336292    -12.546041    0.000000    0.000000    0.000000    
-1.541067    157.390472    -24.482666    -0.581640    -2.665363    -42.508068    2.825232    -0.040263    2.358500    -0.584516    1.171661    0.790846    14.978387    4.538808    15.650490    -8.762516    2.350281    13.619547    -1.264137    9.992338    -10.408268    -42.927551    10.399450    -35.142330    49.007095    -47.192421    -33.150002    -21.952715    -30.821495    -28.232281    -3.179124    8.050815    -3.084457    35.964260    14.410035    73.100960    11.205519    -11.044503    94.329277    14.917360    -20.405310    18.410746    16.948660    -13.468788    6.495944    -12.028976    19.137545    1.014063    -6.332254    -2.247248    34.330475    0.000000    0.000000    0.000000    -12.530267    -2.364434    -2.589669    6.153137    29.717173    0.664372    3.611520    -21.336699    -12.542230    0.000000    0.000000    0.000000    
-1.531608    157.390762    -24.476963    -0.583886    -2.668714    -42.532871    2.827043    -0.042366    2.351147    -0.565311    1.173368    0.788229    14.964367    4.530724    15.651369    -8.757773    2.376349    13.623464    -1.264010    9.996815    -10.413420    -42.972599    10.314385    -35.146225    48.898113    -47.151733    -33.221043    -21.969679    -30.768888    -28.237293    -3.196766    8.022864    -3.082306    36.020630    14.369131    73.163078    11.047795    -11.254738    94.874756    14.944133    -20.542788    18.453892    16.947773    -13.466799    6.513108    -12.022717    19.162386    1.008896    -6.339977    -2.269475    34.335609    0.000000    0.000000    0.000000    -12.538745    -2.364776    -2.581218    6.156731    29.708710    0.675398    3.592764    -21.329750    -12.537249    0.000000    0.000000    0.000000    
